<svg width="375" height="375" viewBox="0 0 375 375" fill="none" xmlns="http://www.w3.org/2000/svg">
<path d="M362.66 176.171C362.66 137.108 314.687 105.397 255.538 105.397C196.384 105.397 148.411 137.108 148.411 176.171C148.411 215.239 196.384 246.95 255.538 246.95C270.609 246.95 278.368 256.934 278.368 256.934L287.485 263.732C307.252 275.197 316.517 276.471 316.517 276.471L310.173 237.019C341.595 224.728 362.66 202.087 362.66 176.171Z" fill="black"/>
<path d="M350.475 177.652C350.475 138.583 302.502 106.872 243.353 106.872C184.199 106.872 136.226 138.553 136.226 177.652C136.226 216.714 184.199 248.425 243.353 248.425C250.788 248.425 258.099 247.923 265.121 246.95C284.8 263.141 309.288 272.305 309.288 272.305L300.555 237.491H300.496C330.56 224.964 350.475 202.83 350.475 177.652Z" fill="#A172FF"/>
<path d="M344.752 149.281C339.264 140.684 331.387 132.995 321.355 126.38C300.88 112.873 273.707 105.397 244.77 105.397C215.885 105.397 188.713 112.844 168.237 126.38C158.206 132.995 150.358 140.743 144.841 149.281C139.117 158.262 136.196 167.809 136.196 177.652C136.196 187.488 139.117 197.006 144.841 205.987C150.328 214.561 158.206 222.273 168.237 228.894C188.713 242.395 215.885 249.877 244.77 249.877C251.437 249.877 257.981 249.458 264.354 248.72C271.199 254.279 278.398 258.858 284.446 262.345C297.251 269.674 308.02 273.692 308.108 273.722C308.285 273.781 308.433 273.81 308.61 273.81C308.993 273.81 309.288 273.663 309.583 273.427C309.996 273.043 310.144 272.512 310.055 271.981L301.824 239.12C308.816 236.252 315.307 232.824 321.296 228.894C331.327 222.273 339.175 214.59 344.693 205.987C350.416 197.006 353.337 187.459 353.337 177.652C353.337 167.839 350.475 158.232 344.752 149.281ZM300.88 236.34L298.519 237.255L299.641 241.273L306.574 269.88C302.679 268.257 294.831 264.8 285.921 259.743C280.611 256.698 274.415 252.798 268.367 248.13C267.157 247.215 265.21 245.616 265.21 245.616C262.938 245.793 263.144 245.793 261.286 246.088C255.892 246.655 250.375 246.92 244.74 246.92C186.47 246.92 139.028 215.8 139.028 177.563C139.028 139.32 186.441 108.265 244.74 108.265C303.033 108.265 350.446 139.379 350.446 177.622C350.475 202.323 330.649 224.073 300.88 236.34Z" fill="black"/>
<path d="M12.3396 169.302C12.3396 130.233 60.3126 98.5286 119.462 98.5286C178.616 98.5286 226.589 130.233 226.589 169.302C226.589 208.371 178.616 240.081 119.462 240.081C104.385 240.081 96.6257 250.065 96.6257 250.065L87.5091 256.863C67.7475 268.328 58.4833 269.603 58.4833 269.603L64.8266 230.15C33.4052 217.853 12.3396 195.218 12.3396 169.302Z" fill="black"/>
<path d="M24.5246 170.777C24.5246 131.714 72.4976 100.004 131.647 100.004C190.801 100.004 238.774 131.685 238.774 170.777C238.774 209.846 190.801 241.557 131.647 241.557C124.212 241.557 116.895 241.055 109.873 240.081C90.1939 256.273 65.7117 265.431 65.7117 265.431L74.4389 230.623H74.4979C44.4396 218.089 24.5246 195.956 24.5246 170.777Z" fill="#D588EA"/>
<path d="M30.2483 142.412C35.736 133.809 43.6135 126.126 53.6447 119.506C74.1144 106.005 101.287 98.5286 130.23 98.5286C159.115 98.5286 186.287 105.975 206.763 119.506C216.794 126.126 224.642 133.868 230.159 142.412C235.883 151.393 238.804 160.941 238.804 170.777C238.804 180.62 235.883 190.138 230.159 199.118C224.672 207.692 216.794 215.405 206.763 222.025C186.287 235.526 159.115 243.002 130.23 243.002C123.563 243.002 117.013 242.589 110.64 241.852C103.795 247.41 96.5962 251.989 90.5479 255.476C77.7433 262.805 66.9804 266.824 66.8919 266.853C66.7149 266.912 66.5673 266.942 66.3903 266.942C66.0068 266.942 65.7117 266.794 65.4167 266.558C65.0036 266.174 64.8561 265.643 64.9446 265.106L73.1762 232.245C66.1838 229.383 59.693 225.955 53.7037 222.025C43.6725 215.405 35.8245 207.722 30.3073 199.118C24.5836 190.138 21.6627 180.59 21.6627 170.777C21.6627 160.97 24.5246 151.364 30.2483 142.412ZM74.1144 229.472L76.4747 230.386L75.3535 234.405L68.4261 263.012C72.3206 261.383 80.1626 257.925 89.0728 252.874C94.3834 249.829 100.579 245.929 106.627 241.262C107.837 240.347 109.784 238.748 109.784 238.748C112.056 238.925 111.85 238.925 113.708 239.22C119.108 239.78 124.625 240.052 130.26 240.052C188.53 240.052 235.972 208.931 235.972 170.689C235.972 132.452 188.559 101.39 130.26 101.39C71.9665 101.39 24.5541 132.511 24.5541 170.748C24.5246 195.454 44.3511 217.204 74.1144 229.472Z" fill="black"/>
<path d="M52.9838 162.139C52.9838 171.963 70.6034 183.948 70.6034 183.948C70.6034 183.948 88.1463 171.881 88.223 162.139C88.223 157.111 84.1279 153.01 79.1005 153.01C75.2414 153.01 71.9134 155.488 70.6034 158.887C69.2935 155.488 65.9655 153.01 62.1064 153.01C57.079 153.01 52.9838 157.111 52.9838 162.139Z" fill="black"/>
<path d="M111.13 162.139C111.13 171.963 128.743 183.948 128.743 183.948C128.743 183.948 146.286 171.881 146.363 162.139C146.363 157.111 142.268 153.01 137.246 153.01C133.381 153.01 130.059 155.488 128.743 158.887C127.433 155.488 124.111 153.01 120.246 153.01C115.225 153.01 111.13 157.111 111.13 162.139Z" fill="black"/>
<path d="M168.42 162.139C168.42 171.963 186.04 183.948 186.04 183.948C186.04 183.948 203.582 171.881 203.659 162.139C203.659 157.111 199.564 153.01 194.537 153.01C190.678 153.01 187.35 155.488 186.04 158.887C184.73 155.488 181.402 153.01 177.542 153.01C172.515 153.01 168.42 157.111 168.42 162.139Z" fill="black"/>
<path d="M241.613 171.326C241.613 180.106 257.362 190.816 257.362 190.816C257.362 190.816 273.034 180.03 273.105 171.326C273.105 166.83 269.446 163.171 264.956 163.171C261.504 163.171 258.53 165.384 257.362 168.417C256.188 165.384 253.214 163.171 249.768 163.171C245.277 163.171 241.613 166.83 241.613 171.326Z" fill="black"/>
<path d="M286.565 171.326C286.565 180.106 302.308 190.816 302.308 190.816C302.308 190.816 317.986 180.03 318.051 171.326C318.051 166.83 314.392 163.171 309.902 163.171C306.45 163.171 303.482 165.384 302.308 168.417C301.139 165.384 298.165 163.171 294.713 163.171C290.223 163.171 286.565 166.83 286.565 171.326Z" fill="black"/>
</svg>
