<?xml version="1.0" encoding="UTF-8"?><svg xmlns="http://www.w3.org/2000/svg" xmlns:xlink="http://www.w3.org/1999/xlink" width="375" zoomAndPan="magnify" viewBox="0 0 375 374.999991" height="374.999991" preserveAspectRatio="xMidYMid meet" version="1.0"><defs><clipPath id="clip-0"><path d="M 171 94.921875 L 313.191406 94.921875 L 313.191406 208.171875 L 171 208.171875 Z M 171 94.921875 " clip-rule="nonzero"/></clipPath><clipPath id="clip-1"><path d="M 163.191406 95 L 306 95 L 306 206 L 163.191406 206 Z M 163.191406 95 " clip-rule="nonzero"/></clipPath><clipPath id="clip-2"><path d="M 163.191406 94.921875 L 307 94.921875 L 307 207 L 163.191406 207 Z M 163.191406 94.921875 " clip-rule="nonzero"/></clipPath><clipPath id="clip-3"><path d="M 81.195312 90.375 L 224 90.375 L 224 203.625 L 81.195312 203.625 Z M 81.195312 90.375 " clip-rule="nonzero"/></clipPath><clipPath id="clip-4"><path d="M 89 91 L 231.195312 91 L 231.195312 201 L 89 201 Z M 89 91 " clip-rule="nonzero"/></clipPath><clipPath id="clip-5"><path d="M 87 90.375 L 231.195312 90.375 L 231.195312 202 L 87 202 Z M 87 90.375 " clip-rule="nonzero"/></clipPath></defs><g clip-path="url(#clip-0)"><path fill="rgb(0%, 0%, 0%)" d="M 313.148438 141.773438 C 313.148438 115.914062 281.390625 94.921875 242.234375 94.921875 C 203.074219 94.921875 171.316406 115.914062 171.316406 141.773438 C 171.316406 167.636719 203.074219 188.628906 242.234375 188.628906 C 252.210938 188.628906 257.347656 195.238281 257.347656 195.238281 L 263.382812 199.738281 C 276.46875 207.328125 282.601562 208.171875 282.601562 208.171875 L 278.402344 182.054688 C 299.203125 173.917969 313.148438 158.929688 313.148438 141.773438 " fill-opacity="1" fill-rule="nonzero"/></g><g clip-path="url(#clip-1)"><path fill="rgb(63.139343%, 44.709778%, 100%)" d="M 305.082031 142.753906 C 305.082031 116.890625 273.324219 95.898438 234.167969 95.898438 C 195.007812 95.898438 163.25 116.871094 163.25 142.753906 C 163.25 168.613281 195.007812 189.605469 234.167969 189.605469 C 239.089844 189.605469 243.929688 189.273438 248.578125 188.628906 C 261.605469 199.347656 277.816406 205.414062 277.816406 205.414062 L 272.035156 182.367188 L 271.996094 182.367188 C 291.898438 174.074219 305.082031 159.421875 305.082031 142.753906 " fill-opacity="1" fill-rule="nonzero"/></g><g clip-path="url(#clip-2)"><path fill="rgb(0%, 0%, 0%)" d="M 301.292969 123.972656 C 297.660156 118.28125 292.445312 113.191406 285.804688 108.8125 C 272.25 99.871094 254.261719 94.921875 235.105469 94.921875 C 215.984375 94.921875 197.996094 99.851562 184.441406 108.8125 C 177.800781 113.191406 172.605469 118.320312 168.953125 123.972656 C 165.164062 129.917969 163.230469 136.238281 163.230469 142.753906 C 163.230469 149.265625 165.164062 155.566406 168.953125 161.511719 C 172.585938 167.1875 177.800781 172.292969 184.441406 176.675781 C 197.996094 185.613281 215.984375 190.566406 235.105469 190.566406 C 239.519531 190.566406 243.851562 190.289062 248.070312 189.800781 C 252.601562 193.480469 257.367188 196.511719 261.371094 198.820312 C 269.847656 203.671875 276.976562 206.332031 277.035156 206.351562 C 277.152344 206.390625 277.25 206.410156 277.367188 206.410156 C 277.621094 206.410156 277.816406 206.3125 278.011719 206.15625 C 278.285156 205.902344 278.382812 205.550781 278.324219 205.199219 L 272.875 183.445312 C 277.503906 181.546875 281.800781 179.277344 285.765625 176.675781 C 292.40625 172.292969 297.601562 167.207031 301.253906 161.511719 C 305.042969 155.566406 306.976562 149.246094 306.976562 142.753906 C 306.976562 136.257812 305.082031 129.898438 301.292969 123.972656 M 272.25 181.605469 L 270.6875 182.210938 L 271.429688 184.871094 L 276.019531 203.808594 C 273.441406 202.734375 268.246094 200.445312 262.347656 197.097656 C 258.832031 195.082031 254.730469 192.5 250.726562 189.410156 C 249.925781 188.804688 248.636719 187.746094 248.636719 187.746094 C 247.132812 187.863281 247.269531 187.863281 246.039062 188.058594 C 242.46875 188.433594 238.816406 188.609375 235.085938 188.609375 C 196.511719 188.609375 165.105469 168.007812 165.105469 142.695312 C 165.105469 117.378906 196.492188 96.820312 235.085938 96.820312 C 273.675781 96.820312 305.0625 117.417969 305.0625 142.734375 C 305.082031 159.085938 291.957031 173.484375 272.25 181.605469 " fill-opacity="1" fill-rule="nonzero"/></g><g clip-path="url(#clip-3)"><path fill="rgb(0%, 0%, 0%)" d="M 81.238281 137.226562 C 81.238281 111.363281 112.996094 90.375 152.152344 90.375 C 191.3125 90.375 223.070312 111.363281 223.070312 137.226562 C 223.070312 163.089844 191.3125 184.082031 152.152344 184.082031 C 142.171875 184.082031 137.035156 190.691406 137.035156 190.691406 L 131 195.191406 C 117.917969 202.78125 111.785156 203.625 111.785156 203.625 L 115.984375 177.507812 C 95.183594 169.367188 81.238281 154.382812 81.238281 137.226562 " fill-opacity="1" fill-rule="nonzero"/></g><g clip-path="url(#clip-4)"><path fill="rgb(83.529663%, 53.329468%, 91.758728%)" d="M 89.304688 138.203125 C 89.304688 112.34375 121.0625 91.351562 160.21875 91.351562 C 199.378906 91.351562 231.136719 112.324219 231.136719 138.203125 C 231.136719 164.066406 199.378906 185.058594 160.21875 185.058594 C 155.296875 185.058594 150.453125 184.726562 145.804688 184.082031 C 132.777344 194.800781 116.570312 200.863281 116.570312 200.863281 L 122.347656 177.820312 L 122.386719 177.820312 C 102.488281 169.523438 89.304688 154.871094 89.304688 138.203125 " fill-opacity="1" fill-rule="nonzero"/></g><g clip-path="url(#clip-5)"><path fill="rgb(0%, 0%, 0%)" d="M 93.09375 119.425781 C 96.726562 113.730469 101.941406 108.644531 108.582031 104.261719 C 122.132812 95.324219 140.121094 90.375 159.28125 90.375 C 178.402344 90.375 196.390625 95.304688 209.945312 104.261719 C 216.585938 108.644531 221.78125 113.769531 225.433594 119.425781 C 229.222656 125.371094 231.15625 131.691406 231.15625 138.203125 C 231.15625 144.71875 229.222656 151.019531 225.433594 156.964844 C 221.800781 162.640625 216.585938 167.746094 209.945312 172.128906 C 196.390625 181.066406 178.402344 186.015625 159.28125 186.015625 C 154.867188 186.015625 150.53125 185.742188 146.3125 185.253906 C 141.78125 188.933594 137.015625 191.964844 133.011719 194.273438 C 124.535156 199.125 117.410156 201.785156 117.351562 201.804688 C 117.234375 201.84375 117.136719 201.863281 117.019531 201.863281 C 116.765625 201.863281 116.570312 201.765625 116.375 201.609375 C 116.101562 201.355469 116.003906 201.003906 116.0625 200.648438 L 121.511719 178.894531 C 116.882812 177 112.585938 174.730469 108.621094 172.128906 C 101.980469 167.746094 96.785156 162.660156 93.132812 156.964844 C 89.34375 151.019531 87.410156 144.699219 87.410156 138.203125 C 87.410156 131.710938 89.304688 125.351562 93.09375 119.425781 M 122.132812 177.058594 L 123.695312 177.664062 L 122.953125 180.324219 L 118.367188 199.261719 C 120.945312 198.183594 126.136719 195.894531 132.035156 192.550781 C 135.550781 190.535156 139.652344 187.953125 143.65625 184.863281 C 144.457031 184.257812 145.746094 183.199219 145.746094 183.199219 C 147.25 183.316406 147.113281 183.316406 148.34375 183.511719 C 151.917969 183.882812 155.570312 184.0625 159.300781 184.0625 C 197.875 184.0625 229.28125 163.460938 229.28125 138.144531 C 229.28125 112.832031 197.894531 92.269531 159.300781 92.269531 C 120.710938 92.269531 89.324219 112.871094 89.324219 138.183594 C 89.304688 154.539062 102.429688 168.9375 122.132812 177.058594 " fill-opacity="1" fill-rule="nonzero"/></g><path fill="rgb(0%, 0%, 0%)" d="M 108.144531 132.484375 C 108.144531 138.988281 119.808594 146.921875 119.808594 146.921875 C 119.808594 146.921875 131.421875 138.933594 131.472656 132.484375 C 131.472656 129.15625 128.761719 126.441406 125.433594 126.441406 C 122.878906 126.441406 120.675781 128.082031 119.808594 130.332031 C 118.941406 128.082031 116.738281 126.441406 114.183594 126.441406 C 110.855469 126.441406 108.144531 129.15625 108.144531 132.484375 " fill-opacity="1" fill-rule="nonzero"/><path fill="rgb(0%, 0%, 0%)" d="M 146.636719 132.484375 C 146.636719 138.988281 158.296875 146.921875 158.296875 146.921875 C 158.296875 146.921875 169.910156 138.933594 169.960938 132.484375 C 169.960938 129.15625 167.25 126.441406 163.925781 126.441406 C 161.367188 126.441406 159.167969 128.082031 158.296875 130.332031 C 157.429688 128.082031 155.230469 126.441406 152.671875 126.441406 C 149.347656 126.441406 146.636719 129.15625 146.636719 132.484375 " fill-opacity="1" fill-rule="nonzero"/><path fill="rgb(0%, 0%, 0%)" d="M 184.5625 132.484375 C 184.5625 138.988281 196.226562 146.921875 196.226562 146.921875 C 196.226562 146.921875 207.839844 138.933594 207.890625 132.484375 C 207.890625 129.15625 205.179688 126.441406 201.851562 126.441406 C 199.296875 126.441406 197.09375 128.082031 196.226562 130.332031 C 195.359375 128.082031 193.15625 126.441406 190.601562 126.441406 C 187.273438 126.441406 184.5625 129.15625 184.5625 132.484375 " fill-opacity="1" fill-rule="nonzero"/><path fill="rgb(0%, 0%, 0%)" d="M 233.015625 138.566406 C 233.015625 144.378906 243.441406 151.46875 243.441406 151.46875 C 243.441406 151.46875 253.816406 144.328125 253.863281 138.566406 C 253.863281 135.589844 251.441406 133.167969 248.46875 133.167969 C 246.183594 133.167969 244.214844 134.632812 243.441406 136.640625 C 242.664062 134.632812 240.695312 133.167969 238.414062 133.167969 C 235.441406 133.167969 233.015625 135.589844 233.015625 138.566406 " fill-opacity="1" fill-rule="nonzero"/><path fill="rgb(0%, 0%, 0%)" d="M 262.773438 138.566406 C 262.773438 144.378906 273.195312 151.46875 273.195312 151.46875 C 273.195312 151.46875 283.574219 144.328125 283.617188 138.566406 C 283.617188 135.589844 281.195312 133.167969 278.222656 133.167969 C 275.9375 133.167969 273.972656 134.632812 273.195312 136.640625 C 272.421875 134.632812 270.453125 133.167969 268.167969 133.167969 C 265.195312 133.167969 262.773438 135.589844 262.773438 138.566406 " fill-opacity="1" fill-rule="nonzero"/></svg>